<svg xmlns="http://www.w3.org/2000/svg" viewBox="0 0 248.68 50.55"><title>Dreamstime logo - Brandlogos.net</title><path d="M453.46,363.23c-4.25-6.49-13.4-5.33-17.4-.53a12.2,12.2,0,0,0-2.49,8.78,11.68,11.68,0,0,0,2.24,6A9,9,0,0,0,448,379.38a8.66,8.66,0,0,0,2-12.72c-4.83-5.82-13.21-.09-10.12,6.53a4.46,4.46,0,0,0,4.08,2.43c2.25,0,4-2.79,3-4.42s-2.84,0-2.1,1.28c.59,1-.7,1.57-1.26,1.44-1.47-.32-2.17-2.46-1.66-4.2a3.48,3.48,0,0,1,3.4-2.47c2,.13,4.29,1.78,4,5.42-.44,5.88-7.84,7-10.78,2.76-4.63-6.69.86-15.8,9.13-13a9.44,9.44,0,0,1,5.45,12.22,27.23,27.23,0,0,0-1.27,3.57c-.34,2.78,7.85-5.55,1.69-15" transform="translate(-259.66 -358.73)" style="fill:#67a243"/><path d="M507.2,392.71l-6,6.32a2.25,2.25,0,0,1-2.89.54,2.88,2.88,0,0,1-1.36-2.67,2.93,2.93,0,0,1,.84-1.61l4.38-4.7a11.2,11.2,0,0,0-4.31-.1,7,7,0,0,0,.31,13.36l.62.09c1.69.12,3.41,0,5.12,0,2,.26,2.46,2.07,2,3.72a2.3,2.3,0,0,1-2.28,1.57h-4.16a10.69,10.69,0,0,1-6.32-2,12.45,12.45,0,0,1-4.16-5.45,14.29,14.29,0,0,1-.19-8.93,12,12,0,0,1,5.76-6.82l.49-.23a11.72,11.72,0,0,1,7.29-.51,11.92,11.92,0,0,1,3.06,1.38,10.63,10.63,0,0,1,2.58,2.4,2.65,2.65,0,0,1-.72,3.56m-61.55,13.92a2.51,2.51,0,0,1-1.38,2.54,2,2,0,0,1-1.67-.18,2.76,2.76,0,0,1-1-2.36v-19a2.64,2.64,0,0,1,1.16-2.46,2.29,2.29,0,0,1,2.13.19,3,3,0,0,1,.74,2.28v19m-10.11-7.56c0,.53,0,1.06-.09,1.59a9.81,9.81,0,0,1-6.26,8.2,9,9,0,0,1-7.09-.73,10,10,0,0,1-4.1-5.05,12.51,12.51,0,0,1-.65-4V381.64a2.53,2.53,0,0,1,1.59-2.59,2.37,2.37,0,0,1,3.13,2,36.05,36.05,0,0,1,0,4h11.06a2.29,2.29,0,0,1,2.36,2.33,4.56,4.56,0,0,1-.32,2,2.18,2.18,0,0,1-2,1H422.12v8.69a5.25,5.25,0,0,0,1.27,3.44l.32.33a4,4,0,0,0,5.53,0,5.17,5.17,0,0,0,1.56-3.76,3.15,3.15,0,0,1,.68-2.36,2.37,2.37,0,0,1,2.67-.56c1.21.61,1.42,1.66,1.41,2.9m-31.23-7.55a4.08,4.08,0,0,0-.94,2.3c-.07,2.07,0,4.17,0,6.25a11.7,11.7,0,0,1-.35,2.74,8.8,8.8,0,0,1-5.26,6.09,16.2,16.2,0,0,1-5.12.27c-1.62-.61-1.9-2.64-1.19-4.09a2.14,2.14,0,0,1,2-1.13,14.72,14.72,0,0,0,3.74-.54,3.92,3.92,0,0,0,1.54-2.54l0-.38c.09-2.08,0-4.19,0-6.27a13.82,13.82,0,0,1,.15-1.89,8.71,8.71,0,0,1,5.46-6.93,17.49,17.49,0,0,1,5.34-.27,2.81,2.81,0,0,1,1.35,3.8,2.4,2.4,0,0,1-1.79,1.35c-1.17.16-4.08.36-4.93,1.24m-24,3.39a4.87,4.87,0,0,0-2.24-4.15,4.06,4.06,0,0,0-3.89-.09,5.75,5.75,0,0,0-1.16,1l-.47.6v14a2.4,2.4,0,0,1-1.6,2.49,2.68,2.68,0,0,1-1.93-.17,2.54,2.54,0,0,1-1.15-2.31V394.91a4.79,4.79,0,0,0-2.65-4.35,4.17,4.17,0,0,0-3.27,0,4.66,4.66,0,0,0-2.56,3.43c0,.31-.06.62-.08.93v11.26a2.33,2.33,0,0,1-3.07,2.49,2.41,2.41,0,0,1-1.6-2.49V394.93a13.5,13.5,0,0,1,.25-2.51,9.57,9.57,0,0,1,5.61-6.87,8.61,8.61,0,0,1,6.89.37,13.27,13.27,0,0,1,2.44,1.83c.35-.32.7-.64,1.07-.94a8.46,8.46,0,0,1,7.84-1.4,8.82,8.82,0,0,1,3.67,2.45,11.9,11.9,0,0,1,1.35,1.92,11,11,0,0,1,1.21,5.15v11.93a2.38,2.38,0,0,1-1.05,2.06,2.64,2.64,0,0,1-2.58,0,2.38,2.38,0,0,1-1-2.07v-12m-41.86,14.35h-.53a9,9,0,0,1-5.9-2.67l-.38-.4a12.92,12.92,0,0,1-3.1-6.6,16.24,16.24,0,0,1,.55-7.21l.19-.53a11.91,11.91,0,0,1,4.36-5.49l.43-.25a9.36,9.36,0,0,1,7.41-.61l.47.18a11.24,11.24,0,0,1,5.72,6.21,15.07,15.07,0,0,1,.93,5.29v9.45a2.48,2.48,0,0,1-1.51,2.55,2.38,2.38,0,0,1-1.82-.18,2.67,2.67,0,0,1-1.08-2.37v-9.48a7.08,7.08,0,0,0-3.28-6.2,5.08,5.08,0,0,0-4.38-.25,6.75,6.75,0,0,0-3.72,5.74,7.92,7.92,0,0,0,1.25,5,5.45,5.45,0,0,0,3.83,2.49,2.89,2.89,0,0,1,2,.58,3.16,3.16,0,0,1,.68,2.93,2.17,2.17,0,0,1-2.14,1.82m-17.66-16.56-5.9,6.32a2.17,2.17,0,0,1-2.83.54,2.86,2.86,0,0,1-1.3-2.9,3.23,3.23,0,0,1,.78-1.38l4.29-4.7a10.69,10.69,0,0,0-4.22-.1,6.47,6.47,0,0,0-4,3.4,7.47,7.47,0,0,0,.68,7.55,6.44,6.44,0,0,0,3,2.24c2.11.63,9,0,11.17.33,1.66.38,2.05,2,1.75,3.44a2.27,2.27,0,0,1-2.31,1.81h-8.77a12.78,12.78,0,0,1-2.27-.22,11,11,0,0,1-7-5.15l-.29-.5a14.06,14.06,0,0,1-.71-11l.21-.53a12.17,12.17,0,0,1,4.77-5.49l.47-.26a11,11,0,0,1,8.15-.58,11.23,11.23,0,0,1,3.38,1.92c1.37,1.21,2.55,2.33,1.76,4.23a3.71,3.71,0,0,1-.86,1m-30.67,2.4v11.5a2.5,2.5,0,0,1-1.44,2.54A2.15,2.15,0,0,1,287,409a2.71,2.71,0,0,1-1-2.36V395.14a15.84,15.84,0,0,1,.23-2.57,9.61,9.61,0,0,1,5-7,7.05,7.05,0,0,1,3-.55c1.24.22,1.8,1.25,1.85,2.61a2.79,2.79,0,0,1-.8,2.18,4.15,4.15,0,0,1-1.79.58,4.18,4.18,0,0,0-2.91,2.49,6.71,6.71,0,0,0-.42,2.25m-20.41-3.63-.55,0c-3,.39-4.78,2.9-5.07,5.76a9.19,9.19,0,0,0,.08,1.91,6,6,0,0,0,5,5.09,6,6,0,0,0,2.24-.23,6.36,6.36,0,0,0,4-6.12V379.39A2.37,2.37,0,0,1,277,377a2.18,2.18,0,0,1,2.87,1.81c0,.19,0,.38,0,.57v18.53a14.4,14.4,0,0,1-.41,3.38,11.17,11.17,0,0,1-5.8,7.16l-.45.19a10,10,0,0,1-6.47.17l-.46-.17a10.84,10.84,0,0,1-5.25-4.87l-.24-.47a13.49,13.49,0,0,1-.41-9.83l.19-.5a11.38,11.38,0,0,1,4.36-5.18,9.31,9.31,0,0,1,5.07-1.27c1.68.25,2.19,1.77,1.88,3.3a2.11,2.11,0,0,1-2.15,1.66m207.64,3.42a4.79,4.79,0,0,0-2.61-4.35,4.05,4.05,0,0,0-3.93.37,7.5,7.5,0,0,0-1.2,1.29v14a2.42,2.42,0,0,1-1.6,2.49,2.73,2.73,0,0,1-1.93-.17,2.54,2.54,0,0,1-1.15-2.31V394.91a4.85,4.85,0,0,0-2.28-4.15,4.09,4.09,0,0,0-3.64-.21,4.66,4.66,0,0,0-2.56,3.43c0,.32-.06.62-.08.93v11.26a2.33,2.33,0,0,1-3.07,2.49,2.42,2.42,0,0,1-1.6-2.49V394.94a13.71,13.71,0,0,1,.25-2.52,9.58,9.58,0,0,1,5.61-6.86,8.6,8.6,0,0,1,6.89.37,13.27,13.27,0,0,1,2.44,1.83l.74-.68a8.45,8.45,0,0,1,7.74-1.78l.42.12a9.29,9.29,0,0,1,5.42,5.21,11.71,11.71,0,0,1,.81,4.32v11.93a2.37,2.37,0,0,1-1.05,2.06,2.55,2.55,0,0,1-2.92-.24,2.62,2.62,0,0,1-.7-1.82v-12" transform="translate(-259.66 -358.73)" style="fill:#222"/></svg>