<?xml version="1.0" encoding="UTF-8" standalone="no"?>
<!-- Created with Inkscape (http://www.inkscape.org/) -->

<svg
   width="120"
   height="120"
   viewBox="0 0 31.75 31.75"
   version="1.1"
   id="svg8"
   inkscape:version="1.2.2 (b0a8486541, 2022-12-01, custom)"
   sodipodi:docname="Ticon2.svg"
   xmlns:inkscape="http://www.inkscape.org/namespaces/inkscape"
   xmlns:sodipodi="http://sodipodi.sourceforge.net/DTD/sodipodi-0.dtd"
   xmlns="http://www.w3.org/2000/svg"
   xmlns:svg="http://www.w3.org/2000/svg"
   xmlns:rdf="http://www.w3.org/1999/02/22-rdf-syntax-ns#"
   xmlns:cc="http://creativecommons.org/ns#"
   xmlns:dc="http://purl.org/dc/elements/1.1/">
  <defs
     id="defs2" />
  <sodipodi:namedview
     id="base"
     pagecolor="#ffffff"
     bordercolor="#666666"
     borderopacity="1.0"
     inkscape:pageopacity="0.0"
     inkscape:pageshadow="2"
     inkscape:zoom="3.959798"
     inkscape:cx="40.027295"
     inkscape:cy="66.543799"
     inkscape:document-units="mm"
     inkscape:current-layer="layer1"
     showgrid="false"
     units="px"
     inkscape:window-width="1292"
     inkscape:window-height="704"
     inkscape:window-x="0"
     inkscape:window-y="0"
     inkscape:window-maximized="1"
     inkscape:showpageshadow="2"
     inkscape:pagecheckerboard="0"
     inkscape:deskcolor="#d1d1d1" />
  <metadata
     id="metadata5">
    <rdf:RDF>
      <cc:Work
         rdf:about="">
        <dc:format>image/svg+xml</dc:format>
        <dc:type
           rdf:resource="http://purl.org/dc/dcmitype/StillImage" />
        <dc:title />
      </cc:Work>
    </rdf:RDF>
  </metadata>
  <g
     inkscape:label="Layer 1"
     inkscape:groupmode="layer"
     id="layer1"
     transform="translate(0,-265.25)">
    <g
       transform="matrix(0.28956452,0,0,0.27538264,-94.319159,77.996711)"
       id="layer1-3">
      <path
         id="rect3899-7-5"
         style="display:inline;fill:#000000"
         d="m 376.71437,717.71949 c -1.3224,0 -1.76404,1.07848 -2.37534,2.00038 l -3.969,5.99927 h -29.15544 c -2.21577,0 -3.99934,1.78477 -3.99934,4.00077 v 54.00096 c 0,2.21577 1.78357,3.99889 3.99934,3.99889 h 79.00003 c 2.216,0 3.99935,-1.78312 3.99935,-3.99889 v -54.00096 c 0,-2.216 -1.78335,-4.00077 -3.99935,-4.00077 h -2.12548 l -3.96901,-5.99927 c -0.6109,-0.92191 -1.05284,-2.00038 -2.37534,-2.00038 z m 16.53099,15.00099 c 13.25477,0 23.99965,10.7442 23.99965,23.99897 0,13.25477 -10.74488,24.00084 -23.99965,24.00084 -13.25377,0 -23.99965,-10.74607 -23.99965,-24.00084 0,-13.25477 10.74588,-23.99897 23.99965,-23.99897 z m -44.03029,5.99927 c 1.108,0 1.99878,0.89239 1.99878,2.00039 v 32.0005 c 0,1.108 -0.89078,1.9985 -1.99878,1.9985 -1.108,0 -2.00057,-0.8905 -2.00057,-1.9985 v -32.0005 c 0,-1.108 0.89257,-2.00039 2.00057,-2.00039 z m 40.08805,3.32334 c 0.0271,-0.008 -0.053,0.0153 -0.0803,0.0225 -0.008,0.004 -0.0168,0.007 -0.025,0.0113 0.03,-0.009 0.0567,-0.019 0.10529,-0.0338 z m -8.72504,2.95366 c -0.0104,8.9e-4 0.0166,0.0372 0.0625,0.10884 l 0.0321,-0.0544 c -0.0574,-0.0356 -0.0864,-0.0551 -0.0946,-0.0544 z m -2.63053,2.84483 c -0.0508,0.0158 -0.10488,0.0341 -0.16597,0.0563 -0.10741,0.0391 -0.12732,0.0258 -0.0571,0.0469 0.0848,-0.0388 0.15604,-0.0731 0.22308,-0.10321 z m 11.60363,0.81441 c -0.0466,0.006 -0.0931,0.0123 -0.1392,0.0206 -0.0226,0.01 -0.0453,0.0199 -0.0678,0.03 0.0529,-9.1e-4 0.10589,0.002 0.15883,0.002 0.0167,-0.0165 0.0324,-0.0339 0.0482,-0.0525 z m 3.76556,2.78853 c -0.0157,0.066 -0.032,0.13067 -0.0428,0.1914 h 0.10173 c -0.0202,-0.0637 -0.0393,-0.12548 -0.0589,-0.1914 z m 3.77092,5.77409 c -0.0324,0.0819 -0.0813,0.17217 -0.0946,0.24395 h 0.002 c 0.0863,-0.0788 0.17012,-0.1609 0.25341,-0.24395 -0.0535,5e-5 -0.10707,-5e-5 -0.16061,0 z m -6.8262,6.07808 c 0.0155,0.15406 0.0368,0.29579 0.0696,0.41472 0.004,-1.4e-4 0.007,-0.002 0.0107,-0.002 -0.007,-0.13051 -0.0169,-0.26845 -0.0303,-0.41284 -0.0167,-5e-5 -0.0333,9e-5 -0.05,0 z m 0.82272,0.0938 c -0.0182,0.0853 -0.0383,0.16869 -0.0589,0.24958 0.0184,-0.003 0.0369,-0.005 0.0553,-0.008 0.009,-0.0743 0.01,-0.15502 0.004,-0.24207 z m 12.11939,4.49805 c -0.007,0.005 -0.0142,0.0102 -0.0214,0.015 0.0207,0.006 0.0215,0.005 0.0321,0.008 0.001,-0.004 0.002,-0.009 0.004,-0.0131 -0.007,-0.004 -0.005,-0.004 -0.0143,-0.009 z m -19.1062,4.20343 c 0.009,0.007 0.0232,0.0212 0.0303,0.0263 0.006,0.004 0.0159,0.009 0.025,0.0131 -0.0122,-0.0116 -0.0281,-0.0254 -0.041,-0.0375 -0.005,-3.8e-4 -0.009,0.001 -0.0143,-0.002 z m -0.05,0.0619 c 0.1127,0.0671 0.22302,0.13794 0.33729,0.20267 -0.0483,-0.0461 -0.10263,-0.099 -0.17489,-0.16889 -0.0549,-0.009 -0.10867,-0.0208 -0.1624,-0.0338 z" />
    </g>
    <path
       style="display:inline;fill:#000000;fill-opacity:1;stroke:#000000;stroke-width:0.264583px;stroke-linecap:butt;stroke-linejoin:miter;stroke-opacity:1"
       d="m 15.024553,285.37723 4.063244,4.44122 5.197173,-6.52009 -4.488467,3.26005 z"
       id="path4049"
       inkscape:connector-curvature="0" />
  </g>
</svg>
