 <svg version="1.0" xmlns="http://www.w3.org/2000/svg" width="700.000000pt" height="234.000000pt" viewBox="0 0 700.000000 234.000000" preserveAspectRatio="xMidYMid meet">
<metadata>
Created by potrace 1.12, written by Peter Selinger 2001-2015
</metadata>
<g transform="translate(0.000000,234.000000) scale(0.100000,-0.100000)" fill="#000000" stroke="none">
<path d="M305 1976 c-58 -25 -115 -112 -115 -176 0 -34 22 -91 47 -120 42 -50
97 -73 164 -68 100 7 169 75 177 173 9 114 -74 205 -187 205 -31 -1 -70 -7
-86 -14z"></path>
<path d="M1085 1980 c-74 -18 -130 -42 -195 -86 -75 -49 -120 -101 -158 -182
-24 -51 -27 -68 -27 -172 0 -112 1 -117 34 -178 62 -114 160 -184 381 -272
144 -57 235 -106 270 -146 55 -63 62 -158 16 -226 -95 -141 -338 -129 -529 27
l-57 46 -99 -103 -99 -103 26 -23 c161 -137 354 -212 546 -212 174 0 304 49
413 156 106 104 151 236 132 389 -24 192 -151 313 -459 435 -247 98 -306 158
-265 266 55 143 313 166 486 43 17 -12 31 -20 33 -18 2 2 37 53 79 113 l76
109 -23 18 c-35 27 -154 85 -216 104 -65 20 -303 30 -365 15z"></path>
<path d="M5220 1170 l0 -800 150 0 150 0 0 235 c0 129 2 235 5 235 4 0 110
-106 237 -235 l230 -235 202 0 201 1 -307 304 -308 305 270 247 270 248 -206
3 -206 2 -126 -117 c-69 -65 -156 -147 -194 -181 l-68 -64 0 426 0 426 -150 0
-150 0 0 -800z"></path>
<path d="M2020 1635 l0 -155 -155 0 -155 0 0 -125 0 -125 155 0 155 0 0 -239
c0 -331 18 -415 110 -515 82 -88 193 -127 365 -125 60 1 124 4 140 8 36 8 36
18 10 162 l-16 94 -92 -3 c-80 -3 -98 0 -136 20 -78 40 -81 54 -81 345 l0 253
185 0 186 0 -3 123 -3 122 -182 3 -183 2 0 155 0 155 -150 0 -150 0 0 -155z"></path>
<path d="M3230 1494 c-120 -23 -230 -82 -315 -168 -116 -117 -165 -237 -165
-403 0 -160 56 -298 165 -407 109 -108 255 -166 420 -166 267 1 470 140 563
388 36 96 37 255 3 360 -57 174 -188 308 -362 369 -58 21 -96 27 -179 29 -58
1 -116 0 -130 -2z m223 -289 c96 -40 167 -144 175 -256 13 -178 -99 -315 -267
-327 -90 -6 -155 16 -219 73 -69 62 -96 127 -96 230 1 147 72 247 207 291 51
17 147 12 200 -11z"></path>
<path d="M4460 1486 c-269 -69 -450 -294 -450 -559 0 -154 50 -283 151 -391
70 -75 128 -115 224 -153 65 -25 80 -27 220 -27 132 -1 158 2 215 23 85 30
188 99 244 163 l45 51 -111 84 c-61 46 -112 83 -113 83 -1 0 -22 -20 -47 -43
-72 -70 -127 -92 -228 -92 -73 0 -93 4 -142 28 -106 52 -161 147 -160 278 0
81 24 140 81 202 59 64 127 92 221 91 87 0 143 -23 214 -85 l45 -40 98 87 c54
48 99 90 101 94 1 3 -24 32 -56 62 -59 56 -147 108 -231 135 -66 21 -253 26
-321 9z"></path>
<path d="M240 925 l0 -555 148 0 147 0 -2 552 -3 553 -145 3 -145 3 0 -556z"></path>
<path d="M6525 716 c-139 -61 -154 -256 -27 -337 52 -33 128 -39 185 -15 59
24 117 111 117 176 0 34 -22 91 -47 120 -53 64 -155 88 -228 56z"></path>
</g>
</svg>